<svg width="19" height="20" viewBox="0 0 19 20" fill="none" xmlns="http://www.w3.org/2000/svg">
<path d="M18.9957 10.3728C18.9939 9.95068 18.7142 9.60335 18.3081 9.48669C18.2271 9.46353 18.1452 9.45284 18.0641 9.45284C17.7373 9.45284 17.4238 9.63096 17.2439 9.91774C16.2785 11.4505 14.6265 12.365 12.8247 12.365C9.94354 12.365 7.59955 10.021 7.59955 7.13988C7.59955 5.33821 8.51419 3.68625 10.0468 2.7207C10.404 2.49538 10.5705 2.06166 10.4538 1.65554C10.3407 1.26011 9.98538 0.983143 9.5757 0.968004C9.55255 0.967113 9.5187 0.965332 9.5 0.965332C4.26141 0.965332 0 5.22674 0 10.4653C0 15.7039 4.26141 19.9653 9.5 19.9653C14.7386 19.9653 19 15.7039 19 10.4653C19 10.4413 18.9975 10.3969 18.9957 10.3728ZM9.50023 19.0151C4.77828 19.0151 0.950509 15.1873 0.950509 10.4654C0.950509 5.74343 4.77828 1.91566 9.50023 1.91566C9.51448 1.91566 9.52784 1.91745 9.5412 1.91745C7.80632 3.0111 6.65026 4.93835 6.65026 7.14076C6.65026 10.5508 9.41467 13.3153 12.8248 13.3153C15.0263 13.3153 16.9544 12.1593 18.0472 10.4243C18.0472 10.4386 18.0489 10.4519 18.0489 10.4653C18.0498 15.1872 14.2222 19.0151 9.50023 19.0151Z" fill="#2D1D38"/>
</svg>
