<svg width="20" height="20" viewBox="0 0 20 20" fill="none" xmlns="http://www.w3.org/2000/svg">
<path d="M9.66797 5.46338C7.00222 5.46338 4.83398 7.63247 4.83398 10.2974C4.83398 12.9631 7.00218 15.1313 9.66797 15.1313C12.3338 15.1313 14.5019 12.9632 14.5019 10.2974C14.5019 7.63157 12.3338 5.46338 9.66797 5.46338ZM9.66797 14.1651C7.53242 14.1651 5.80022 12.4338 5.80022 10.2974C5.80022 8.16182 7.5315 6.42962 9.66797 6.42962C11.8035 6.42962 13.5357 8.16179 13.5357 10.2974C13.5357 12.4329 11.8035 14.1651 9.66797 14.1651Z" fill="#4756FF"/>
<path d="M9.66769 4.49621C9.93508 4.49621 10.1508 4.27957 10.1508 4.01309V1.11251C10.1508 0.845128 9.93417 0.629395 9.66769 0.629395C9.4003 0.629395 9.18457 0.84603 9.18457 1.11251V4.01309C9.18457 4.27957 9.4003 4.49621 9.66769 4.49621Z" fill="#4756FF"/>
<path d="M4.97518 6.28853C5.06945 6.3828 5.19363 6.42993 5.31691 6.42993C5.44019 6.42993 5.56436 6.3828 5.65865 6.28853C5.84718 6.09999 5.84718 5.79362 5.65865 5.60508L3.72524 3.67168C3.5367 3.48314 3.23033 3.48314 3.04179 3.67168C2.85326 3.86021 2.85326 4.16658 3.04179 4.35512L4.97518 6.28853Z" fill="#4756FF"/>
<path d="M3.86681 10.2976C3.86681 10.0302 3.65018 9.81445 3.38369 9.81445H0.48312C0.215733 9.81445 0 10.0311 0 10.2976C0 10.565 0.216636 10.7807 0.48312 10.7807H3.38369C3.65017 10.7807 3.86681 10.565 3.86681 10.2976Z" fill="#4756FF"/>
<path d="M4.9752 14.3064L3.04179 16.2398C2.85326 16.4284 2.85326 16.7348 3.04179 16.9233C3.13606 17.0176 3.26024 17.0647 3.38353 17.0647C3.50681 17.0647 3.63098 17.0176 3.72526 16.9233L5.65867 14.9899C5.84721 14.8013 5.84721 14.495 5.65867 14.3064C5.47013 14.1179 5.16374 14.1179 4.9752 14.3064Z" fill="#4756FF"/>
<path d="M9.66769 16.0986C9.4003 16.0986 9.18457 16.3153 9.18457 16.5818V19.4823C9.18457 19.7497 9.40121 19.9654 9.66769 19.9654C9.93508 19.9654 10.1508 19.7488 10.1508 19.4823V16.5818C10.1508 16.3153 9.93508 16.0986 9.66769 16.0986Z" fill="#4756FF"/>
<path d="M14.361 14.3064C14.1724 14.1179 13.8661 14.1179 13.6775 14.3064C13.489 14.495 13.489 14.8013 13.6775 14.9899L15.6109 16.9233C15.7052 17.0176 15.8294 17.0647 15.9527 17.0647C16.076 17.0647 16.2001 17.0176 16.2944 16.9233C16.4829 16.7348 16.4829 16.4284 16.2944 16.2398L14.361 14.3064Z" fill="#4756FF"/>
<path d="M18.8524 9.81445H15.9519C15.6854 9.81445 15.4688 10.0302 15.4688 10.2976C15.4688 10.565 15.6854 10.7807 15.9519 10.7807H18.8524C19.1198 10.7807 19.3356 10.5641 19.3356 10.2976C19.3356 10.0302 19.1198 9.81445 18.8524 9.81445Z" fill="#4756FF"/>
<path d="M14.0192 6.42944C14.1425 6.42944 14.2667 6.38231 14.361 6.28804L16.2944 4.35463C16.4829 4.1661 16.4829 3.85973 16.2944 3.67119C16.1059 3.48265 15.7995 3.48265 15.6109 3.67119L13.6775 5.60459C13.489 5.79313 13.489 6.0995 13.6775 6.28804C13.7718 6.38231 13.896 6.42944 14.0192 6.42944Z" fill="#4756FF"/>
</svg>
