<svg width="44" height="51" viewBox="0 0 44 51" fill="none" xmlns="http://www.w3.org/2000/svg">
<path d="M20.799 9.42061C16.4657 7.8169 17.0438 0.525939 21.6566 0.0398988C22.2229 -0.111766 23.1895 0.197179 23.7012 0.492081C26.8736 2.32889 26.6343 8.01347 22.9526 9.42054V12.2825C25.843 12.2853 28.7381 12.2263 31.6287 12.2853C35.2867 12.3583 38.8098 16.1555 38.7431 20.6213C39.1483 20.568 39.6055 20.6185 40.0154 20.6185C42.5338 20.6241 43.7896 20.3489 43.7943 23.8793V30.353C43.7943 34.2288 43.9009 35.1052 40.5864 35.0996L38.7431 35.0967C38.7479 37.1526 38.9042 39.1888 38.1414 41.1099C37.0207 43.9297 35.5518 44.9717 33.2537 45.9519C32.7254 48.3981 31.1973 50.2181 29.1029 50.777C28.1125 51.041 27.0298 50.9483 26.0182 50.9483H17.866C16.8117 50.9483 15.6816 51.041 14.6439 50.7938C12.6041 50.3136 10.9551 48.37 10.5334 45.9519C8.53144 45.1935 7.09334 44.0757 6.00828 41.9384C4.87107 39.6944 4.97297 37.5992 4.97533 35.0968L2.85963 35.0996C1.36227 35.1052 0.0095048 34.9816 4.31906e-05 32.7488V23.6572C-0.00706393 20.8795 0.862445 20.6154 2.98288 20.6183L4.97539 20.6211C5.22653 18.2478 5.78563 16.5543 7.22374 14.8382C9.64506 11.9482 12.263 12.2824 15.4238 12.2824H20.7995C20.8161 11.3303 20.8013 10.3728 20.799 9.42061ZM21.6566 2.59858C19.1263 3.08446 19.7115 7.37313 22.0997 7.04175C24.5589 6.58956 24.0732 2.29524 21.6566 2.59858ZM12.3339 14.8689C10.7726 15.0627 9.40087 15.6525 8.37975 17.1326C7.05536 19.0481 7.17382 20.9129 7.17618 23.2244V34.4839C7.17618 35.7814 7.12406 37.107 7.23778 38.3962C7.45575 40.8481 9.3132 43.1258 11.3649 43.5303C12.1207 43.6791 12.9215 43.6033 13.6867 43.6033H31.4248C32.8818 43.5976 34.0522 43.1314 35.1018 41.8732C36.5754 40.1067 36.5802 38.5984 36.5802 36.3207V32.7762C36.5802 28.8358 36.6228 24.8925 36.5849 20.9524C36.5541 17.9725 34.7322 15.4954 32.2777 14.9645C31.4793 14.7932 30.5979 14.869 29.7876 14.869L12.3339 14.8689ZM39.4827 23.123C39.2339 23.1033 38.9899 23.0921 38.7434 23.123V32.5123H40.9989C41.16 32.5264 41.4443 32.5938 41.5818 32.4758C41.7286 32.3466 41.641 30.5407 41.641 30.2795L41.6434 24.4208C41.6457 23.9911 41.6765 23.553 41.641 23.1233C40.9587 23.0053 40.1792 23.1258 39.4827 23.123ZM2.17239 23.123V32.5123H4.97514V23.123H2.17239ZM15.0559 46.1452H12.9402C13.5989 48.3134 15.3592 48.2853 16.9158 48.2825H19.3844C22.4715 48.2825 25.5654 48.2291 28.6501 48.2825C29.6239 47.9062 30.4579 47.322 30.8393 46.1452C29.1027 46.0918 27.3518 46.1452 25.6128 46.1452H15.0559Z" fill="#4756FF"/>
<path d="M29.0905 31.9367C27.9556 32.1923 26.4962 31.4396 25.6789 30.5493C22.7292 27.325 24.5772 21.2836 28.5384 21.129C30.8579 20.4718 33.3005 23.4236 33.4 26.1676C33.5019 29.0463 31.59 31.8412 29.0905 31.9367ZM28.6498 23.6625C25.3401 24.3169 25.9323 29.5998 29.0905 29.3695C32.2439 28.8191 31.9193 23.3704 28.6498 23.6625Z" fill="#4756FF"/>
<path d="M13.7788 30.8662C9.77722 31.2566 8.9836 24.0273 13.4163 23.5245C14.1366 23.3251 15.0984 23.87 15.6339 24.4008C17.804 26.5606 16.5721 30.6078 13.7788 30.8662ZM13.4163 26.0832C12.0754 26.3978 12.3478 28.4199 13.568 28.3469C14.8876 28.1026 14.672 25.954 13.4163 26.0832Z" fill="#4756FF"/>
<path d="M16.7572 38.8963C16.7619 38.0537 16.7146 37.1943 16.7572 36.3545H23.6399C24.7985 36.3545 25.957 36.3742 27.1155 36.3545C27.1061 37.2027 27.1132 38.0481 27.1155 38.8963H16.7572Z" fill="#4756FF"/>
</svg>
